<svg id="visual" viewBox="0 0 300 500" width="300" height="500" xmlns="http://www.w3.org/2000/svg" xmlns:xlink="http://www.w3.org/1999/xlink" version="1.1"><g stroke-width="1" stroke-linejoin="bevel"><path d="M153 245.2L145 199.7L107 252.2Z" fill="#002667" stroke="#002667"></path><path d="M145 199.7L87 214.2L107 252.2Z" fill="#002667" stroke="#002667"></path><path d="M107 252.2L147 299.8L153 245.2Z" fill="#08367b" stroke="#08367b"></path><path d="M0 249.8L95 300.8L107 252.2Z" fill="#042e71" stroke="#042e71"></path><path d="M107 252.2L95 300.8L147 299.8Z" fill="#002667" stroke="#002667"></path><path d="M159 348.3L157 308.3L147 299.8Z" fill="#042e71" stroke="#042e71"></path><path d="M147 299.8L157 308.3L153 245.2Z" fill="#0d3f85" stroke="#0d3f85"></path><path d="M157 308.3L216 228.2L153 245.2Z" fill="#0d3f85" stroke="#0d3f85"></path><path d="M153 245.2L216 228.2L145 199.7Z" fill="#114790" stroke="#114790"></path><path d="M176 133.7L96 133.7L145 199.7Z" fill="#1c62af" stroke="#1c62af"></path><path d="M145 199.7L96 133.7L87 214.2Z" fill="#08367b" stroke="#08367b"></path><path d="M224 178.7L176 133.7L145 199.7Z" fill="#042e71" stroke="#042e71"></path><path d="M216 228.2L224 178.7L145 199.7Z" fill="#267ecf" stroke="#267ecf"></path><path d="M95 300.8L159 348.3L147 299.8Z" fill="#1959a5" stroke="#1959a5"></path><path d="M157 308.3L268 301.8L216 228.2Z" fill="#08367b" stroke="#08367b"></path><path d="M0 205.7L0 224.2L87 214.2Z" fill="#114790" stroke="#114790"></path><path d="M87 214.2L0 249.8L107 252.2Z" fill="#206bba" stroke="#206bba"></path><path d="M96 133.7L0 205.7L87 214.2Z" fill="#267ecf" stroke="#267ecf"></path><path d="M0 224.2L0 249.8L87 214.2Z" fill="#002667" stroke="#002667"></path><path d="M95 300.8L84 364.9L159 348.3Z" fill="#1959a5" stroke="#1959a5"></path><path d="M0 249.8L25 316.8L95 300.8Z" fill="#042e71" stroke="#042e71"></path><path d="M181 81.6L169 92.1L176 133.7Z" fill="#267ecf" stroke="#267ecf"></path><path d="M176 133.7L169 92.1L96 133.7Z" fill="#2375c4" stroke="#2375c4"></path><path d="M25 316.8L56 349.3L95 300.8Z" fill="#15509a" stroke="#15509a"></path><path d="M56 349.3L84 364.9L95 300.8Z" fill="#1c62af" stroke="#1c62af"></path><path d="M132 75.1L42 102.1L96 133.7Z" fill="#0d3f85" stroke="#0d3f85"></path><path d="M96 133.7L42 102.1L0 205.7Z" fill="#08367b" stroke="#08367b"></path><path d="M169 92.1L132 75.1L96 133.7Z" fill="#042e71" stroke="#042e71"></path><path d="M232 80.6L181 81.6L176 133.7Z" fill="#08367b" stroke="#08367b"></path><path d="M169 92.1L181 81.6L132 75.1Z" fill="#08367b" stroke="#08367b"></path><path d="M84 364.9L115 380.9L159 348.3Z" fill="#15509a" stroke="#15509a"></path><path d="M251 342.3L268 301.8L157 308.3Z" fill="#1959a5" stroke="#1959a5"></path><path d="M216 228.2L300 205.2L224 178.7Z" fill="#206bba" stroke="#206bba"></path><path d="M251 342.3L157 308.3L159 348.3Z" fill="#002667" stroke="#002667"></path><path d="M200 390.9L251 342.3L159 348.3Z" fill="#15509a" stroke="#15509a"></path><path d="M300 260.8L300 205.2L216 228.2Z" fill="#114790" stroke="#114790"></path><path d="M224 178.7L232 80.6L176 133.7Z" fill="#15509a" stroke="#15509a"></path><path d="M0 249.8L0 347.3L25 316.8Z" fill="#267ecf" stroke="#267ecf"></path><path d="M25 316.8L0 347.3L56 349.3Z" fill="#15509a" stroke="#15509a"></path><path d="M56 349.3L0 432.4L84 364.9Z" fill="#0d3f85" stroke="#0d3f85"></path><path d="M84 364.9L112 411.4L115 380.9Z" fill="#267ecf" stroke="#267ecf"></path><path d="M300 205.2L300 192.7L224 178.7Z" fill="#08367b" stroke="#08367b"></path><path d="M300 344.3L300 260.8L268 301.8Z" fill="#267ecf" stroke="#267ecf"></path><path d="M268 301.8L300 260.8L216 228.2Z" fill="#1c62af" stroke="#1c62af"></path><path d="M21 34.6L0 100.1L42 102.1Z" fill="#0d3f85" stroke="#0d3f85"></path><path d="M42 102.1L0 100.1L0 205.7Z" fill="#002667" stroke="#002667"></path><path d="M181 81.6L143 43.6L132 75.1Z" fill="#042e71" stroke="#042e71"></path><path d="M262 91.1L232 80.6L224 178.7Z" fill="#0d3f85" stroke="#0d3f85"></path><path d="M195 394.9L200 390.9L159 348.3Z" fill="#0d3f85" stroke="#0d3f85"></path><path d="M149 415.4L195 394.9L159 348.3Z" fill="#15509a" stroke="#15509a"></path><path d="M216 0L143 43.6L181 81.6Z" fill="#1959a5" stroke="#1959a5"></path><path d="M60 0L21 34.6L42 102.1Z" fill="#15509a" stroke="#15509a"></path><path d="M0 347.3L0 360.9L56 349.3Z" fill="#1959a5" stroke="#1959a5"></path><path d="M115 380.9L149 415.4L159 348.3Z" fill="#1959a5" stroke="#1959a5"></path><path d="M0 432.4L112 411.4L84 364.9Z" fill="#1c62af" stroke="#1c62af"></path><path d="M112 411.4L149 415.4L115 380.9Z" fill="#1959a5" stroke="#1959a5"></path><path d="M300 192.7L262 91.1L224 178.7Z" fill="#114790" stroke="#114790"></path><path d="M216 0L103 0L143 43.6Z" fill="#042e71" stroke="#042e71"></path><path d="M300 415.9L300 344.3L251 342.3Z" fill="#1c62af" stroke="#1c62af"></path><path d="M251 342.3L300 344.3L268 301.8Z" fill="#002667" stroke="#002667"></path><path d="M300 415.9L251 342.3L200 390.9Z" fill="#1959a5" stroke="#1959a5"></path><path d="M60 0L42 102.1L132 75.1Z" fill="#1959a5" stroke="#1959a5"></path><path d="M143 43.6L103 0L132 75.1Z" fill="#1c62af" stroke="#1c62af"></path><path d="M216 0L181 81.6L232 80.6Z" fill="#15509a" stroke="#15509a"></path><path d="M300 192.7L300 77.1L262 91.1Z" fill="#15509a" stroke="#15509a"></path><path d="M300 22.6L249 0L232 80.6Z" fill="#002667" stroke="#002667"></path><path d="M103 0L60 0L132 75.1Z" fill="#1959a5" stroke="#1959a5"></path><path d="M0 0L0 22.6L21 34.6Z" fill="#08367b" stroke="#08367b"></path><path d="M21 34.6L0 22.6L0 100.1Z" fill="#0d3f85" stroke="#0d3f85"></path><path d="M0 360.9L0 432.4L56 349.3Z" fill="#2375c4" stroke="#2375c4"></path><path d="M194 500L219 462.4L149 415.4Z" fill="#08367b" stroke="#08367b"></path><path d="M249 0L216 0L232 80.6Z" fill="#042e71" stroke="#042e71"></path><path d="M149 415.4L219 462.4L195 394.9Z" fill="#002667" stroke="#002667"></path><path d="M195 394.9L219 462.4L200 390.9Z" fill="#206bba" stroke="#206bba"></path><path d="M144 500L149 415.4L112 411.4Z" fill="#1c62af" stroke="#1c62af"></path><path d="M219 462.4L300 415.9L200 390.9Z" fill="#15509a" stroke="#15509a"></path><path d="M300 22.6L232 80.6L262 91.1Z" fill="#114790" stroke="#114790"></path><path d="M60 0L0 0L21 34.6Z" fill="#042e71" stroke="#042e71"></path><path d="M0 432.4L38 473.4L112 411.4Z" fill="#1c62af" stroke="#1c62af"></path><path d="M300 77.1L300 22.6L262 91.1Z" fill="#1959a5" stroke="#1959a5"></path><path d="M70 500L144 500L112 411.4Z" fill="#002667" stroke="#002667"></path><path d="M38 473.4L70 500L112 411.4Z" fill="#08367b" stroke="#08367b"></path><path d="M144 500L194 500L149 415.4Z" fill="#267ecf" stroke="#267ecf"></path><path d="M219 462.4L300 475.4L300 415.9Z" fill="#1959a5" stroke="#1959a5"></path><path d="M300 22.6L300 0L249 0Z" fill="#114790" stroke="#114790"></path><path d="M0 432.4L0 500L38 473.4Z" fill="#042e71" stroke="#042e71"></path><path d="M38 473.4L0 500L70 500Z" fill="#267ecf" stroke="#267ecf"></path><path d="M194 500L255 500L219 462.4Z" fill="#1959a5" stroke="#1959a5"></path><path d="M255 500L300 475.4L219 462.4Z" fill="#08367b" stroke="#08367b"></path><path d="M255 500L300 500L300 475.4Z" fill="#0d3f85" stroke="#0d3f85"></path></g></svg>