<svg id="visual" viewBox="0 0 300 500" width="300" height="500" xmlns="http://www.w3.org/2000/svg" xmlns:xlink="http://www.w3.org/1999/xlink" version="1.1"><rect x="0" y="0" width="300" height="500" fill="#001220"></rect><path d="M0 333L10 336.3C20 339.7 40 346.3 60 350.8C80 355.3 100 357.7 120 354.5C140 351.3 160 342.7 180 339.8C200 337 220 340 240 341.8C260 343.7 280 344.3 290 344.7L300 345L300 501L290 501C280 501 260 501 240 501C220 501 200 501 180 501C160 501 140 501 120 501C100 501 80 501 60 501C40 501 20 501 10 501L0 501Z" fill="#c41a41"></path><path d="M0 374L10 378.2C20 382.3 40 390.7 60 393C80 395.3 100 391.7 120 384.2C140 376.7 160 365.3 180 367C200 368.7 220 383.3 240 390.5C260 397.7 280 397.3 290 397.2L300 397L300 501L290 501C280 501 260 501 240 501C220 501 200 501 180 501C160 501 140 501 120 501C100 501 80 501 60 501C40 501 20 501 10 501L0 501Z" fill="#ae1152"></path><path d="M0 367L10 372.3C20 377.7 40 388.3 60 394.5C80 400.7 100 402.3 120 401.8C140 401.3 160 398.7 180 393.2C200 387.7 220 379.3 240 380.7C260 382 280 393 290 398.5L300 404L300 501L290 501C280 501 260 501 240 501C220 501 200 501 180 501C160 501 140 501 120 501C100 501 80 501 60 501C40 501 20 501 10 501L0 501Z" fill="#92185d"></path><path d="M0 396L10 396.7C20 397.3 40 398.7 60 399C80 399.3 100 398.7 120 398.5C140 398.3 160 398.7 180 398.7C200 398.7 220 398.3 240 399.7C260 401 280 404 290 405.5L300 407L300 501L290 501C280 501 260 501 240 501C220 501 200 501 180 501C160 501 140 501 120 501C100 501 80 501 60 501C40 501 20 501 10 501L0 501Z" fill="#742161"></path><path d="M0 427L10 426.8C20 426.7 40 426.3 60 427.8C80 429.3 100 432.7 120 434.8C140 437 160 438 180 432.7C200 427.3 220 415.7 240 409.2C260 402.7 280 401.3 290 400.7L300 400L300 501L290 501C280 501 260 501 240 501C220 501 200 501 180 501C160 501 140 501 120 501C100 501 80 501 60 501C40 501 20 501 10 501L0 501Z" fill="#54255e"></path><path d="M0 451L10 450.2C20 449.3 40 447.7 60 443.5C80 439.3 100 432.7 120 430.3C140 428 160 430 180 430.3C200 430.7 220 429.3 240 432.5C260 435.7 280 443.3 290 447.2L300 451L300 501L290 501C280 501 260 501 240 501C220 501 200 501 180 501C160 501 140 501 120 501C100 501 80 501 60 501C40 501 20 501 10 501L0 501Z" fill="#362555"></path><path d="M0 459L10 456.5C20 454 40 449 60 444.8C80 440.7 100 437.3 120 440.5C140 443.7 160 453.3 180 455.8C200 458.3 220 453.7 240 449.2C260 444.7 280 440.3 290 438.2L300 436L300 501L290 501C280 501 260 501 240 501C220 501 200 501 180 501C160 501 140 501 120 501C100 501 80 501 60 501C40 501 20 501 10 501L0 501Z" fill="#1b2146"></path><path d="M0 452L10 456C20 460 40 468 60 468.5C80 469 100 462 120 460.2C140 458.3 160 461.7 180 464C200 466.3 220 467.7 240 468.3C260 469 280 469 290 469L300 469L300 501L290 501C280 501 260 501 240 501C220 501 200 501 180 501C160 501 140 501 120 501C100 501 80 501 60 501C40 501 20 501 10 501L0 501Z" fill="#071b33"></path><path d="M0 482L10 481.7C20 481.3 40 480.7 60 481.7C80 482.7 100 485.3 120 486.2C140 487 160 486 180 485.2C200 484.3 220 483.7 240 481C260 478.3 280 473.7 290 471.3L300 469L300 501L290 501C280 501 260 501 240 501C220 501 200 501 180 501C160 501 140 501 120 501C100 501 80 501 60 501C40 501 20 501 10 501L0 501Z" fill="#001220"></path></svg>