<svg id="visual" viewBox="0 0 300 500" width="300" height="500" xmlns="http://www.w3.org/2000/svg" xmlns:xlink="http://www.w3.org/1999/xlink" version="1.1"><rect x="0" y="0" width="300" height="500" fill="#001220"></rect><path d="M0 352L10 357.7C20 363.3 40 374.7 60 378.8C80 383 100 380 120 374.2C140 368.3 160 359.7 180 358.2C200 356.7 220 362.3 240 360C260 357.7 280 347.3 290 342.2L300 337L300 501L290 501C280 501 260 501 240 501C220 501 200 501 180 501C160 501 140 501 120 501C100 501 80 501 60 501C40 501 20 501 10 501L0 501Z" fill="#001220"></path><path d="M0 386L10 381.7C20 377.3 40 368.7 60 363.2C80 357.7 100 355.3 120 357C140 358.7 160 364.3 180 369.7C200 375 220 380 240 379.7C260 379.3 280 373.7 290 370.8L300 368L300 501L290 501C280 501 260 501 240 501C220 501 200 501 180 501C160 501 140 501 120 501C100 501 80 501 60 501C40 501 20 501 10 501L0 501Z" fill="#212249"></path><path d="M0 371L10 370.5C20 370 40 369 60 370.2C80 371.3 100 374.7 120 374.7C140 374.7 160 371.3 180 368.8C200 366.3 220 364.7 240 369C260 373.3 280 383.7 290 388.8L300 394L300 501L290 501C280 501 260 501 240 501C220 501 200 501 180 501C160 501 140 501 120 501C100 501 80 501 60 501C40 501 20 501 10 501L0 501Z" fill="#622460"></path><path d="M0 410L10 409.5C20 409 40 408 60 409.8C80 411.7 100 416.3 120 417C140 417.7 160 414.3 180 407.2C200 400 220 389 240 389C260 389 280 400 290 405.5L300 411L300 501L290 501C280 501 260 501 240 501C220 501 200 501 180 501C160 501 140 501 120 501C100 501 80 501 60 501C40 501 20 501 10 501L0 501Z" fill="#a51356"></path><path d="M0 397L10 401.7C20 406.3 40 415.7 60 418.8C80 422 100 419 120 419.5C140 420 160 424 180 424.8C200 425.7 220 423.3 240 418.8C260 414.3 280 407.7 290 404.3L300 401L300 501L290 501C280 501 260 501 240 501C220 501 200 501 180 501C160 501 140 501 120 501C100 501 80 501 60 501C40 501 20 501 10 501L0 501Z" fill="#c41a41"></path><path d="M0 443L10 439.8C20 436.7 40 430.3 60 426.5C80 422.7 100 421.3 120 424.5C140 427.7 160 435.3 180 435.2C200 435 220 427 240 424.5C260 422 280 425 290 426.5L300 428L300 501L290 501C280 501 260 501 240 501C220 501 200 501 180 501C160 501 140 501 120 501C100 501 80 501 60 501C40 501 20 501 10 501L0 501Z" fill="#c41a41"></path><path d="M0 455L10 452C20 449 40 443 60 440.7C80 438.3 100 439.7 120 440.8C140 442 160 443 180 442C200 441 220 438 240 438.3C260 438.7 280 442.3 290 444.2L300 446L300 501L290 501C280 501 260 501 240 501C220 501 200 501 180 501C160 501 140 501 120 501C100 501 80 501 60 501C40 501 20 501 10 501L0 501Z" fill="#a51356"></path><path d="M0 450L10 449.7C20 449.3 40 448.7 60 450C80 451.3 100 454.7 120 455C140 455.3 160 452.7 180 450.7C200 448.7 220 447.3 240 450C260 452.7 280 459.3 290 462.7L300 466L300 501L290 501C280 501 260 501 240 501C220 501 200 501 180 501C160 501 140 501 120 501C100 501 80 501 60 501C40 501 20 501 10 501L0 501Z" fill="#622460"></path><path d="M0 464L10 465.8C20 467.7 40 471.3 60 471.5C80 471.7 100 468.3 120 465.7C140 463 160 461 180 459.5C200 458 220 457 240 457.7C260 458.3 280 460.7 290 461.8L300 463L300 501L290 501C280 501 260 501 240 501C220 501 200 501 180 501C160 501 140 501 120 501C100 501 80 501 60 501C40 501 20 501 10 501L0 501Z" fill="#212249"></path><path d="M0 484L10 484.7C20 485.3 40 486.7 60 485.2C80 483.7 100 479.3 120 477.3C140 475.3 160 475.7 180 475.3C200 475 220 474 240 476.3C260 478.7 280 484.3 290 487.2L300 490L300 501L290 501C280 501 260 501 240 501C220 501 200 501 180 501C160 501 140 501 120 501C100 501 80 501 60 501C40 501 20 501 10 501L0 501Z" fill="#001220"></path></svg>